<?xml version="1.0" encoding="UTF-8" standalone="no"?><!DOCTYPE svg PUBLIC "-//W3C//DTD SVG 1.1//EN" "http://www.w3.org/Graphics/SVG/1.1/DTD/svg11.dtd"><svg width="100%" height="100%" viewBox="0 0 504 491" version="1.1" xmlns="http://www.w3.org/2000/svg" xmlns:xlink="http://www.w3.org/1999/xlink" xml:space="preserve" xmlns:serif="http://www.serif.com/" style="fill-rule:evenodd;clip-rule:evenodd;stroke-linejoin:round;stroke-miterlimit:2;"><path d="M251.617,0c-138.946,0 -251.617,112.646 -251.617,251.617c0,111.166 72.096,205.483 172.071,238.754c12.575,2.329 17.192,-5.459 17.192,-12.104c-0,-6 -0.234,-25.821 -0.342,-46.846c-70,15.221 -84.771,-29.688 -84.771,-29.688c-11.446,-29.079 -27.938,-36.816 -27.938,-36.816c-22.829,-15.617 1.721,-15.296 1.721,-15.296c25.267,1.775 38.571,25.933 38.571,25.933c22.442,38.463 58.863,27.342 73.221,20.913c2.258,-16.259 8.779,-27.363 15.975,-33.646c-55.888,-6.359 -114.638,-27.938 -114.638,-124.35c0,-27.467 9.83,-49.917 25.925,-67.538c-2.612,-6.337 -11.225,-31.929 2.438,-66.587c-0,-0 21.129,-6.759 69.212,25.796c20.071,-5.575 41.596,-8.371 62.98,-8.471c21.383,0.1 42.925,2.896 63.033,8.471c48.025,-32.555 69.125,-25.796 69.125,-25.796c13.696,34.658 5.079,60.25 2.467,66.587c16.133,17.621 25.895,40.071 25.895,67.538c0,96.646 -58.862,117.921 -114.891,124.15c9.025,7.808 17.066,23.121 17.066,46.596c0,33.666 -0.291,60.762 -0.291,69.05c-0,6.695 4.529,14.541 17.283,12.07c99.921,-33.308 171.925,-127.587 171.925,-238.72c0,-138.971 -112.654,-251.617 -251.612,-251.617Z" style="fill:#181717;"/><path d="M95.3,361.262c-0.554,1.255 -2.521,1.63 -4.312,0.771c-1.826,-0.825 -2.851,-2.529 -2.259,-3.783c0.542,-1.283 2.513,-1.642 4.333,-0.783c1.83,0.82 2.871,2.541 2.238,3.795Z" style="fill:#181717;fill-rule:nonzero;"/><path d="M105.492,372.633c-1.2,1.109 -3.546,0.592 -5.138,-1.166c-1.646,-1.755 -1.954,-4.1 -0.737,-5.23c1.237,-1.108 3.512,-0.587 5.162,1.167c1.646,1.775 1.967,4.1 0.713,5.229Z" style="fill:#181717;fill-rule:nonzero;"/><path d="M115.413,387.121c-1.542,1.075 -4.063,0.071 -5.621,-2.167c-1.542,-2.237 -1.542,-4.925 0.033,-6c1.563,-1.075 4.046,-0.104 5.625,2.113c1.537,2.275 1.537,4.958 -0.037,6.054Z" style="fill:#181717;fill-rule:nonzero;"/><path d="M129.004,401.121c-1.379,1.521 -4.317,1.112 -6.467,-0.963c-2.2,-2.029 -2.812,-4.908 -1.429,-6.429c1.396,-1.525 4.35,-1.096 6.517,0.963c2.183,2.025 2.85,4.925 1.379,6.429Z" style="fill:#181717;fill-rule:nonzero;"/><path d="M147.754,409.25c-0.608,1.971 -3.437,2.867 -6.287,2.029c-2.846,-0.862 -4.709,-3.171 -4.134,-5.162c0.592,-1.984 3.434,-2.917 6.304,-2.021c2.842,0.858 4.709,3.15 4.117,5.154Z" style="fill:#181717;fill-rule:nonzero;"/><path d="M168.346,410.758c0.071,2.075 -2.346,3.796 -5.338,3.834c-3.008,0.066 -5.441,-1.613 -5.475,-3.654c0,-2.096 2.363,-3.801 5.371,-3.851c2.992,-0.058 5.442,1.609 5.442,3.671Z" style="fill:#181717;fill-rule:nonzero;"/><path d="M187.508,407.496c0.359,2.025 -1.721,4.104 -4.691,4.658c-2.921,0.533 -5.625,-0.717 -5.996,-2.725c-0.363,-2.075 1.754,-4.154 4.671,-4.692c2.975,-0.516 5.637,0.7 6.016,2.759Z" style="fill:#181717;fill-rule:nonzero;"/></svg>